<svg width="274" height="34" viewBox="0 0 274 34" fill="none" xmlns="http://www.w3.org/2000/svg">
<path d="M31.8815 6.47778C32.7235 7.5132 33.4435 8.64457 34.0192 9.85057L17.7652 21.2469L10.9739 17.1971V12.3252L17.7652 16.3749L31.8815 6.47778Z" fill="#21A038"/>
<path d="M4.16549 16.9193C4.16549 16.699 4.17116 16.48 4.18248 16.2622L0.0226545 16.0647C0.00849575 16.3482 0 16.6331 0 16.9193C0 21.644 2.01762 25.9226 5.28119 29.0201L8.23046 26.2209C5.72153 23.8371 4.16549 20.5476 4.16549 16.9193Z" fill="url(#paint0_linear)"/>
<path d="M17.7689 3.93274C17.9976 3.93274 18.2248 3.94077 18.4507 3.95146L18.6557 0.0213959C18.3616 0.00802376 18.0659 0 17.7689 0C12.8664 0 8.42665 1.90553 5.21265 4.9878L8.1171 7.77321C10.5907 5.401 14.0041 3.93274 17.7689 3.93274Z" fill="url(#paint1_linear)"/>
<path d="M17.8965 30.0091C17.6678 30.0091 17.4406 30.0037 17.2147 29.993L17.0096 33.9217C17.3038 33.9352 17.5994 33.9431 17.8965 33.9431C22.799 33.9431 27.2387 32.0376 30.4527 28.9554L27.5482 26.1699C25.0746 28.5395 21.6612 30.0091 17.8965 30.0091Z" fill="url(#paint2_linear)"/>
<path d="M25.5973 6.21857L29.0809 3.77794C26.0066 1.41489 22.0941 0 17.8326 0V3.93442C20.7116 3.93308 23.3851 4.77826 25.5973 6.21857Z" fill="url(#paint3_linear)"/>
<path d="M35.6653 17.0177C35.6653 15.9847 35.5656 14.9743 35.3749 13.9917L31.4729 16.6703C31.4758 16.7857 31.4786 16.901 31.4786 17.0164C31.4786 20.8288 29.7048 24.2631 26.8862 26.6407L29.7006 29.5381C33.3634 26.4498 35.6653 21.9837 35.6653 17.0177Z" fill="#21A038"/>
<path d="M17.8327 29.9882C13.8234 29.9882 10.2114 28.3132 7.71102 25.6516L4.66394 28.3092C7.91322 31.7694 12.6101 33.943 17.8327 33.943V29.9882Z" fill="url(#paint4_linear)"/>
<path d="M8.77916 7.34254L5.96522 4.40479C2.30154 7.53749 0 12.0658 0 17.101H4.18746C4.18889 13.2342 5.96094 9.75323 8.77916 7.34254Z" fill="url(#paint5_linear)"/>
<path d="M163.854 12.0605L157.043 22.6578H155.136L148.173 12.202V27.0448H144.388V7.10335H149.171L156.194 17.9573L163.158 7.10335H167.638V27.0459H163.853V12.0605H163.854ZM183.503 7.10335L192.222 27.0459H188.196L186.167 22.3168H176.448L174.45 27.0459H170.605L179.205 7.10335H183.505H183.503ZM177.811 19.0406H184.774L181.292 10.8642L177.811 19.0406ZM199.004 20.8344V27.0459H195.219V7.10335H202.273C208.963 7.10335 211.81 9.35438 211.81 13.8554C211.81 18.501 208.479 20.8365 202.273 20.8365H199.004V20.8344ZM199.004 10.3785V17.5582H202.545C206.057 17.5582 207.874 16.4749 207.874 13.7678C207.874 11.3182 206.3 10.3785 202.606 10.3785H199.004ZM219.772 27.0448H215.987V7.10335H219.772V15.4782H222.951L229.763 7.10335H234.365L226.282 16.59L235.668 27.0459H230.824L223.134 18.4134H219.774V27.0448H219.772ZM252.196 18.4134H242.447V23.7696H253.648V27.0459H238.662V7.10335H253.315V10.3796H242.445V15.1372H252.195V18.4134H252.196ZM273.904 10.3796H266.758V27.0448H262.973V10.3785H255.95V7.10229H273.903L273.904 10.3796Z" fill="#FECB00"/>
<path d="M104.042 10.5954L108.64 7.35935H93.2506V26.793H108.639V23.559H97.6426V18.5827H107.023V15.3478H97.6416V10.5964L104.042 10.5954ZM75.0809 14.9352V10.5954H83.6124L88.2102 7.35935H70.69V26.793H79.8578C85.0015 26.793 87.9512 24.5676 87.9512 20.6879C87.9522 16.9792 85.2797 14.9352 80.425 14.9352H75.0809ZM79.7818 23.557H75.2021V18.1702H79.7818C82.5694 18.1702 83.8668 19.072 83.8668 20.8641C83.8679 22.6946 82.4937 23.557 79.7818 23.557ZM114.307 7.36039V26.793H118.699V21.2891H122.686C128.033 21.2891 131.354 18.6045 131.354 14.3144C131.354 10.0253 128.033 7.36039 122.687 7.36039H114.307ZM122.592 18.0531H118.699V10.5954H122.592C125.407 10.5954 126.956 11.919 126.956 14.3237C126.956 16.7284 125.406 18.0531 122.592 18.0531ZM59.1692 23.4906C55.2099 23.4906 52.3359 20.7926 52.3359 17.0746C52.3359 13.3566 55.2099 10.6586 59.1692 10.6586C60.667 10.6586 62.0091 11.0607 63.1636 11.8516L66.3137 9.63554L66.1048 9.46037C64.2659 7.917 61.8087 7.10229 58.9986 7.10229C55.9508 7.10229 53.1845 8.08388 51.2102 9.86461C49.2231 11.6578 48.1293 14.1786 48.1293 16.9658C48.1293 19.7654 49.221 22.3246 51.1995 24.1716C53.1845 26.0249 55.9444 27.0459 58.9709 27.0459C62.137 27.0459 64.9013 25.9917 66.7743 24.0742L63.9322 22.0748L62.96 22.5847C61.8343 23.1776 60.523 23.4906 59.1692 23.4906Z" fill="#209F38"/>
<defs>
<linearGradient id="paint0_linear" x1="4.8387" y1="28.5244" x2="0.97036" y2="16.7854" gradientUnits="userSpaceOnUse">
<stop offset="0.1444" stop-color="#F2E913"/>
<stop offset="0.3037" stop-color="#E7E518"/>
<stop offset="0.5823" stop-color="#CADB26"/>
<stop offset="0.891" stop-color="#A3CD39"/>
</linearGradient>
<linearGradient id="paint1_linear" x1="6.38504" y1="4.56006" x2="16.867" y2="0.322608" gradientUnits="userSpaceOnUse">
<stop offset="0.0592" stop-color="#0FA8E0"/>
<stop offset="0.5385" stop-color="#0099F9"/>
<stop offset="0.9234" stop-color="#0291EB"/>
</linearGradient>
<linearGradient id="paint2_linear" x1="16.7389" y1="30.6234" x2="29.3286" y2="27.6049" gradientUnits="userSpaceOnUse">
<stop offset="0.1226" stop-color="#A3CD39"/>
<stop offset="0.2846" stop-color="#86C339"/>
<stop offset="0.8693" stop-color="#21A038"/>
</linearGradient>
<linearGradient id="paint3_linear" x1="16.9671" y1="2.49542" x2="27.4914" y2="5.91103" gradientUnits="userSpaceOnUse">
<stop offset="0.0566" stop-color="#0291EB"/>
<stop offset="0.79" stop-color="#0C8ACB"/>
</linearGradient>
<linearGradient id="paint4_linear" x1="5.69299" y1="28.9218" x2="16.8569" y2="33.3695" gradientUnits="userSpaceOnUse">
<stop offset="0.1324" stop-color="#F2E913"/>
<stop offset="0.2977" stop-color="#EBE716"/>
<stop offset="0.5306" stop-color="#D9E01F"/>
<stop offset="0.8023" stop-color="#BBD62D"/>
<stop offset="0.9829" stop-color="#A3CD39"/>
</linearGradient>
<linearGradient id="paint5_linear" x1="3.18307" y1="17.5801" x2="7.39584" y2="6.12891" gradientUnits="userSpaceOnUse">
<stop offset="0.0698" stop-color="#A3CD39"/>
<stop offset="0.2599" stop-color="#81C55F"/>
<stop offset="0.9216" stop-color="#0FA8E0"/>
</linearGradient>
</defs>
</svg>
